<svg width="448" height="180" viewBox="0 0 448 180" fill="none" xmlns="http://www.w3.org/2000/svg">
<rect y="43" width="111" height="111" fill="#7562EA"/>
<path d="M99.856 103.24C99.856 105.459 99.728 107.805 99.472 110.28H43.408C43.8347 117.192 46.1813 122.611 50.448 126.536C54.8 130.376 60.048 132.296 66.192 132.296C71.2267 132.296 75.408 131.144 78.736 128.84C82.1493 126.451 84.5387 123.293 85.904 119.368H98.448C96.5707 126.109 92.816 131.613 87.184 135.88C81.552 140.061 74.5547 142.152 66.192 142.152C59.536 142.152 53.5627 140.659 48.272 137.672C43.0667 134.685 38.9707 130.461 35.984 125C32.9973 119.453 31.504 113.053 31.504 105.8C31.504 98.5467 32.9547 92.1893 35.856 86.728C38.7573 81.2667 42.8107 77.0853 48.016 74.184C53.3067 71.1973 59.3653 69.704 66.192 69.704C72.848 69.704 78.736 71.1547 83.856 74.056C88.976 76.9573 92.9013 80.968 95.632 86.088C98.448 91.1227 99.856 96.84 99.856 103.24ZM87.824 100.808C87.824 96.3707 86.8427 92.5733 84.88 89.416C82.9173 86.1733 80.2293 83.7413 76.816 82.12C73.488 80.4133 69.776 79.56 65.68 79.56C59.792 79.56 54.7573 81.4373 50.576 85.192C46.48 88.9467 44.1333 94.152 43.536 100.808H87.824Z" fill="white"/>
<path d="M153.688 142.152C148.312 142.152 143.491 141.256 139.224 139.464C134.957 137.587 131.587 135.027 129.112 131.784C126.637 128.456 125.272 124.659 125.016 120.392H137.048C137.389 123.891 139.011 126.749 141.912 128.968C144.899 131.187 148.781 132.296 153.56 132.296C157.997 132.296 161.496 131.315 164.056 129.352C166.616 127.389 167.896 124.915 167.896 121.928C167.896 118.856 166.531 116.595 163.8 115.144C161.069 113.608 156.845 112.115 151.128 110.664C145.923 109.299 141.656 107.933 138.328 106.568C135.085 105.117 132.269 103.027 129.88 100.296C127.576 97.48 126.424 93.8107 126.424 89.288C126.424 85.704 127.491 82.4187 129.624 79.432C131.757 76.4453 134.787 74.0987 138.712 72.392C142.637 70.6 147.117 69.704 152.152 69.704C159.917 69.704 166.189 71.6667 170.968 75.592C175.747 79.5173 178.307 84.8933 178.648 91.72H167C166.744 88.0507 165.251 85.1067 162.52 82.888C159.875 80.6693 156.291 79.56 151.768 79.56C147.587 79.56 144.259 80.456 141.784 82.248C139.309 84.04 138.072 86.3867 138.072 89.288C138.072 91.592 138.797 93.512 140.248 95.048C141.784 96.4987 143.661 97.6933 145.88 98.632C148.184 99.4853 151.341 100.467 155.352 101.576C160.387 102.941 164.483 104.307 167.64 105.672C170.797 106.952 173.485 108.915 175.704 111.56C178.008 114.205 179.203 117.661 179.288 121.928C179.288 125.768 178.221 129.224 176.088 132.296C173.955 135.368 170.925 137.8 167 139.592C163.16 141.299 158.723 142.152 153.688 142.152ZM230.547 69.576C235.838 69.576 240.616 70.728 244.883 73.032C249.15 75.2507 252.478 78.6213 254.867 83.144C257.342 87.6667 258.579 93.1707 258.579 99.656V141H247.059V101.32C247.059 94.3227 245.31 88.9893 241.811 85.32C238.312 81.5653 233.534 79.688 227.475 79.688C221.331 79.688 216.424 81.608 212.755 85.448C209.171 89.288 207.379 94.8773 207.379 102.216V141H195.731V46.28H207.379V80.84C209.683 77.256 212.84 74.4827 216.851 72.52C220.947 70.5573 225.512 69.576 230.547 69.576ZM308.198 142.152C301.627 142.152 295.654 140.659 290.278 137.672C284.987 134.685 280.806 130.461 277.734 125C274.747 119.453 273.254 113.053 273.254 105.8C273.254 98.632 274.79 92.3173 277.862 86.856C281.019 81.3093 285.286 77.0853 290.662 74.184C296.038 71.1973 302.054 69.704 308.71 69.704C315.366 69.704 321.382 71.1973 326.758 74.184C332.134 77.0853 336.358 81.2667 339.43 86.728C342.587 92.1893 344.166 98.5467 344.166 105.8C344.166 113.053 342.545 119.453 339.302 125C336.145 130.461 331.835 134.685 326.374 137.672C320.913 140.659 314.854 142.152 308.198 142.152ZM308.198 131.912C312.379 131.912 316.305 130.931 319.974 128.968C323.643 127.005 326.587 124.061 328.806 120.136C331.11 116.211 332.262 111.432 332.262 105.8C332.262 100.168 331.153 95.3893 328.934 91.464C326.715 87.5387 323.814 84.6373 320.23 82.76C316.646 80.7973 312.763 79.816 308.582 79.816C304.315 79.816 300.39 80.7973 296.806 82.76C293.307 84.6373 290.491 87.5387 288.358 91.464C286.225 95.3893 285.158 100.168 285.158 105.8C285.158 111.517 286.182 116.339 288.23 120.264C290.363 124.189 293.179 127.133 296.678 129.096C300.177 130.973 304.017 131.912 308.198 131.912ZM371.129 83.784C373.433 79.7733 376.846 76.4453 381.369 73.8C385.977 71.0693 391.31 69.704 397.369 69.704C403.598 69.704 409.23 71.1973 414.265 74.184C419.385 77.1707 423.396 81.3947 426.297 86.856C429.198 92.232 430.649 98.504 430.649 105.672C430.649 112.755 429.198 119.069 426.297 124.616C423.396 130.163 419.385 134.472 414.265 137.544C409.23 140.616 403.598 142.152 397.369 142.152C391.396 142.152 386.105 140.829 381.497 138.184C376.974 135.453 373.518 132.083 371.129 128.072V174.28H359.481V70.856H371.129V83.784ZM418.745 105.672C418.745 100.381 417.678 95.7733 415.545 91.848C413.412 87.9227 410.51 84.936 406.841 82.888C403.257 80.84 399.289 79.816 394.937 79.816C390.67 79.816 386.702 80.8827 383.033 83.016C379.449 85.064 376.548 88.0933 374.329 92.104C372.196 96.0293 371.129 100.595 371.129 105.8C371.129 111.091 372.196 115.741 374.329 119.752C376.548 123.677 379.449 126.707 383.033 128.84C386.702 130.888 390.67 131.912 394.937 131.912C399.289 131.912 403.257 130.888 406.841 128.84C410.51 126.707 413.412 123.677 415.545 119.752C417.678 115.741 418.745 111.048 418.745 105.672Z" fill="black"/>
</svg>
